<?xml version="1.0" encoding="UTF-8"?>
<!-- Generator: Adobe Illustrator 15.1.0, SVG Export Plug-In . SVG Version: 6.00 Build 0)  -->
<svg width="37.653px" height="34.328px" enable-background="new -9.346 0 37.653 34.328" version="1.1" viewBox="-9.346 0 37.653 34.328" xml:space="preserve" xmlns="http://www.w3.org/2000/svg">
<rect x="-9.346" y="11.062" width="8.787" height=".43984"/><rect x="-9.346" y="17.501" width="8.787" height=".43984" fill="#f00"/><rect x="-4.804" y="10.198" width="9.608" height="16.527" fill="#ccc" stroke-width="2.2916"/><rect x="-9.346" y="23.941" width="8.787" height=".43984" fill="#00f"/><rect x="-4.804" y="10.198" width="9.608" height="15.047" fill="#e6e6e6" stroke-width="2.2916"/><g fill="none"><circle id="connector0pin" cx="-8.906" cy="11.282" r="1.755"/><circle id="connector2pin" cx="-8.9525" cy="24.161" r="1.755"/><circle id="connector1pin" cx="-9.035" cy="17.721" r="1.755"/></g><circle cx="14.154" cy="18.292" r="14.153" fill="#ccc"/><path d="m0 17.839c0 7.817 6.337 14.154 14.153 14.154s14.153-6.337 14.153-14.154v0.453c0 7.817-6.337 14.154-14.153 14.154s-14.153-6.336-14.153-14.154z" opacity=".2"/><rect y="13.375" width="28.307" height="4.807" fill="#ccc"/><circle cx="14.154" cy="14.153" r="14.153" fill="#e6e6e6"/><path d="M 0,14.646 C 0,6.83 6.337,0.494 14.154,0.494 c 7.816,0 14.153,6.336 14.153,14.152 V 14.153 C 28.307,6.336 21.97,0 14.154,0 6.337,0 0,6.336 0,14.153 Z" fill="#fff" opacity=".3"/><path d="m28.307 13.662c0 7.815-6.336 14.152-14.153 14.152s-14.154-6.337-14.154-14.152v0.492c0 7.816 6.337 14.153 14.153 14.153 7.817 0 14.153-6.337 14.153-14.153v-0.492z" fill="#fff" opacity=".3"/><circle cx="14.174" cy="14.173" r=".799" fill="#ccc"/>
</svg>
